<svg version="1.0" xmlns="http://www.w3.org/2000/svg" width="800.000000" height="800.000000" viewBox="0 0 800.000000 800.000000" preserveAspectRatio="xMidYMid meet">
  <metadata>
    <rdf:RDF xmlns:rdf="http://www.w3.org/1999/02/22-rdf-syntax-ns#" xmlns:rdfs="http://www.w3.org/2000/01/rdf-schema#" xmlns:dc="http://purl.org/dc/elements/1.1/">
      <rdf:Description dc:format="image/svg+xml" dc:Label="1" dc:ContentProducer="001191330110MACRLGPT8B00000" dc:ProduceID="363339655" dc:ReservedCode1="HPJYG2L1AQQs4PnDG132ZmxaViNY8RrMkwp3EQngYQk=" dc:ContentPropagator="001191330110MACRLGPT8B00000" dc:PropagateID="363339655" dc:ReservedCode2="HPJYG2L1AQQs4PnDG132ZmxaViNY8RrMkwp3EQngYQk="/>
    </rdf:RDF>
  </metadata>
  <g transform="translate(188.672688,625.717038) scale(0.054110,-0.054110)" fill="#000000" stroke="none">
    <path d="M2817 7401 c-125 -28 -274 -102 -358 -180 -110 -100 -247 -329 -314 -521 -57 -164 -67 -226 -74 -445 l-6 -200 -37 -65 c-20 -36 -91 -144 -158 -240 -67 -96 -170 -248 -228 -338 -288 -441 -284 -435 -333 -459 -25 -12 -106 -47 -180 -76 -374 -150 -528 -274 -647 -519 -77 -160 -107 -307 -99 -488 12 -268 131 -489 351 -655 236 -176 647 -213 949 -84 113 48 182 96 278 190 165 165 253 347 274 574 5 50 0 125 -15 251 l-23 181 43 74 c23 41 57 97 75 124 249 384 489 761 539 848 15 26 31 47 35 47 3 0 26 -39 50 -87 24 -49 65 -124 91 -168 26 -44 99 -172 162 -285 63 -113 149 -266 192 -342 92 -164 414 -827 446 -917 25 -71 24 -114 -7 -286 -24 -140 -22 -379 5 -480 47 -172 171 -366 301 -468 98 -77 277 -150 437 -178 109 -19 294 -7 380 25 91 33 244 108 310 152 184 122 284 281 330 521 17 91 14 273 -6 388 -5 28 -9 82 -9 121 -1 82 10 105 145 289 120 164 230 331 401 609 241 389 241 390 463 457 212 64 291 109 406 232 253 271 332 767 175 1101 -143 307 -372 459 -724 482 -95 6 -113 4 -232 -25 -271 -68 -446 -181 -587 -381 -150 -213 -218 -502 -188 -794 16 -149 16 -149 -99 -334 -43 -70 -123 -201 -176 -292 -190 -319 -384 -615 -396 -603 -12 12 -46 78 -234 453 -112 223 -231 441 -336 615 -169 281 -287 500 -339 625 -36 87 -39 148 -9 222 88 225 106 355 74 553 -18 116 -38 182 -86 276 -158 315 -450 502 -804 515 -94 3 -139 0 -208 -15z m277 -377 c126 -26 260 -88 310 -143 16 -18 15 -19 -33 -23 -36 -4 -61 -14 -93 -38 -23 -18 -174 -165 -335 -326 -307 -309 -316 -321 -299 -389 12 -48 90 -69 146 -40 52 27 200 157 361 316 179 176 279 291 310 356 l22 46 18 -24 c11 -13 31 -60 45 -104 21 -64 26 -100 27 -180 0 -89 -3 -110 -33 -190 -81 -225 -95 -315 -68 -437 13 -57 114 -263 218 -443 187 -326 290 -499 343 -580 33 -49 99 -171 147 -270 365 -752 355 -734 434 -771 86 -40 172 -28 237 34 54 51 291 380 512 712 278 416 365 566 387 662 6 29 8 120 4 240 -6 171 -4 204 14 292 52 247 192 411 407 478 104 33 310 32 415 -1 136 -42 213 -104 273 -219 67 -127 69 -249 10 -472 -64 -242 -169 -348 -413 -416 -177 -49 -268 -108 -365 -233 -24 -32 -114 -174 -200 -317 -200 -330 -222 -363 -364 -558 -159 -218 -197 -275 -237 -360 -53 -112 -60 -171 -39 -352 24 -210 18 -309 -22 -396 -61 -130 -207 -239 -389 -289 -64 -17 -95 -20 -159 -16 -176 13 -296 64 -399 170 -152 155 -194 336 -145 627 31 190 23 245 -71 465 -55 130 -333 685 -397 795 -50 84 -181 318 -233 415 -15 28 -59 109 -98 180 -105 193 -169 336 -197 440 -20 73 -56 128 -103 157 -48 29 -134 28 -199 -3 -89 -43 -130 -96 -368 -479 -167 -269 -307 -474 -394 -582 -87 -107 -165 -223 -190 -281 -45 -105 -50 -217 -14 -367 42 -179 36 -279 -23 -400 -68 -137 -194 -235 -369 -286 -75 -21 -276 -25 -355 -5 -252 61 -414 255 -436 524 -12 155 34 264 172 403 67 68 96 89 175 127 52 25 133 59 181 76 138 48 227 88 281 128 60 44 155 171 261 348 43 72 94 151 112 178 19 26 34 49 34 51 0 3 87 135 193 294 279 418 282 425 271 705 -7 206 0 249 64 392 143 319 355 442 656 379z"/>
    <path d="M2970 6932 c-100 -76 -483 -427 -491 -450 -22 -56 33 -96 106 -78 45 12 364 308 441 409 31 41 44 69 44 91 0 61 -42 73 -100 28z"/>
    <path d="M6380 6183 c-40 -17 -123 -81 -260 -199 -142 -122 -190 -171 -207 -212 -15 -35 -14 -37 12 -59 36 -31 82 -30 133 5 146 98 436 368 448 416 14 56 -51 82 -126 49z"/>
    <path d="M6644 6032 c-79 -52 -165 -124 -371 -309 -290 -261 -372 -372 -317 -427 20 -21 61 -20 100 2 18 9 128 103 246 207 118 105 262 233 321 284 130 115 177 172 177 216 0 73 -67 85 -156 27z"/>
    <path d="M6579 5577 c-169 -107 -400 -285 -463 -358 -64 -75 -44 -129 47 -129 44 0 61 6 107 38 116 78 382 285 440 341 54 53 60 63 60 100 0 30 -5 43 -19 51 -42 22 -85 11 -172 -43z"/>
    <path d="M1240 4369 c-128 -77 -449 -405 -466 -476 -5 -19 -2 -30 11 -40 57 -41 136 12 396 265 174 170 200 205 181 247 -9 20 -19 25 -49 25 -21 0 -54 -10 -73 -21z"/>
    <path d="M1459 4283 c-78 -57 -409 -384 -438 -433 -26 -43 -27 -72 -3 -93 29 -26 82 -21 136 13 66 42 362 342 414 419 47 71 52 103 20 125 -36 25 -62 19 -129 -31z"/>
    <path d="M1720 4055 c-83 -49 -336 -262 -436 -366 -75 -79 -94 -121 -73 -158 12 -21 23 -27 57 -29 47 -4 76 13 197 115 39 32 137 112 218 177 82 65 157 133 168 150 58 95 -30 170 -131 111z"/>
    <path d="M4791 3548 c-61 -32 -178 -137 -367 -329 -124 -127 -165 -175 -179 -211 -16 -44 -16 -49 -1 -73 33 -51 99 -42 179 24 102 85 486 465 501 496 20 42 20 58 -1 84 -27 33 -80 36 -132 9z"/>
    <path d="M5034 3170 c-32 -16 -119 -74 -191 -129 -220 -165 -263 -208 -263 -267 0 -42 23 -59 80 -59 56 0 73 11 349 228 217 170 235 192 187 234 -38 32 -89 30 -162 -7z"/>
    <path d="M710 1983 c-87 -7 -270 -43 -322 -64 -378 -149 -484 -572 -209 -832 75 -70 153 -113 261 -144 60 -17 115 -18 790 -17 2237 5 6056 31 6119 44 146 28 227 68 307 151 172 181 174 449 6 631 -90 96 -211 153 -440 205 -116 27 -120 27 -482 25 -201 -1 -1179 -3 -2175 -5 -1224 -2 -1938 -8 -2205 -16 -395 -14 -617 -9 -1015 19 -123 9 -538 11 -635 3z m6060 -317 c215 -3 248 -6 384 -35 170 -34 249 -68 284 -120 60 -91 -6 -211 -133 -242 -38 -9 -656 -12 -2665 -13 -1438 -1 -2716 -5 -2840 -10 -161 -6 -252 -5 -320 3 -52 7 -279 14 -505 17 -402 5 -453 9 -526 40 -78 34 -109 125 -70 203 29 56 92 94 199 121 86 22 102 22 1272 31 652 4 1212 10 1245 11 85 4 3392 -1 3675 -6z"/>
  </g>
</svg>
